<svg width="270" height="135" viewBox="0 0 270 135" fill="none" xmlns="http://www.w3.org/2000/svg">
<path d="M7.47344 116.622C20.2455 104.852 31.9533 92.3569 42.9515 79.4254C53.5949 66.7846 64.5931 53.5625 70.0922 38.7422C72.7531 31.6226 74.7044 23.6313 74.527 16.0758C74.3496 12.5887 73.1079 8.95626 69.2053 6.9221C65.4801 4.88794 60.8679 5.46913 56.9653 6.9221C49.5149 9.68275 43.8385 15.9305 39.7585 21.4518C35.5011 27.2637 32.4855 33.8021 30.3568 40.3405C25.7446 54.1437 23.4386 68.6734 24.6803 82.9126C25.2125 90.1774 26.809 97.4423 29.2925 104.562C31.7759 111.246 35.3237 118.22 40.2907 124.032C45.435 129.989 53.0628 134.784 62.2871 134.784C71.334 134.784 78.0748 129.553 82.6869 123.741C87.8313 117.348 91.9112 110.083 94.7495 102.964C96.346 99.1859 97.4103 95.2628 97.5877 91.3398C97.7651 88.1433 97.2329 84.5108 94.3947 82.1861C86.5895 75.9383 77.8974 85.5279 75.0592 90.9039C71.6888 97.1517 70.8018 104.417 70.9792 111.246C71.1566 118.22 73.9948 126.066 81.9774 129.553C90.4921 133.185 100.249 129.989 107.344 125.485C110.715 123.305 113.375 120.254 113.021 116.767C112.843 114.878 111.069 113.134 108.586 113.134C106.28 113.134 103.974 114.733 104.151 116.767C104.329 118.946 100.958 120.399 99.0069 121.416C96.1686 122.869 92.9756 124.032 89.6052 123.886C83.2191 123.596 80.3809 117.639 80.0261 113.28C79.4939 107.758 80.2035 101.656 82.1548 96.4252C83.0417 94.1005 84.2835 91.7757 86.2347 89.7415C86.4121 89.5962 88.8956 87.5621 88.8956 87.5621C89.073 87.998 88.0087 87.2715 88.186 87.2715C88.3634 87.2715 88.7182 88.4339 88.7182 88.5792C89.4278 91.1945 88.5408 94.3911 87.6539 97.0064C86.7669 100.203 85.3478 103.254 83.9287 106.16C81.0904 111.827 77.72 117.639 73.1079 122.433C69.0279 126.647 63.5288 128.827 57.1427 126.792C50.5793 124.613 46.6767 119.382 43.4837 114.442C30.002 92.9381 31.0664 66.7846 38.3394 43.8276C41.7098 33.3662 47.0315 22.033 57.6749 15.0588C59.094 14.187 62.2871 12.2981 64.2383 13.0246C66.367 13.8964 65.6575 17.0929 65.6575 18.5459C65.3027 25.0843 63.7062 31.4773 61.2227 37.7251C56.2558 50.2207 47.2089 61.2633 38.3394 72.0153C29.2925 83.2032 19.536 93.6646 9.24734 103.835C6.58649 106.451 3.92564 108.921 1.26478 111.536C-0.331733 112.989 -0.509123 115.169 1.26478 116.622C2.6839 117.929 5.87693 118.22 7.47344 116.622Z" fill="#242424"/>
<path d="M106.107 118.364C110.719 124.758 120.653 127.954 129.167 125.193C138.214 122.287 141.762 115.023 142.472 107.612C143.181 100.348 142.472 91.3392 136.972 85.2367C131.119 78.6983 120.12 78.553 112.67 83.4931C104.155 89.1597 103.446 98.8946 104.155 107.177C104.333 109.065 106.107 110.809 108.59 110.809C110.896 110.809 113.202 109.211 113.025 107.177C112.67 101.801 112.315 95.9887 115.863 91.3392C118.347 88.1426 124.378 85.5273 128.458 88.4332C130.764 90.0315 131.828 92.7922 132.538 95.1169C133.425 98.0229 133.602 101.074 133.602 104.125C133.602 108.63 133.247 114.151 128.813 117.202C124.023 120.689 116.75 119.382 113.557 115.023C110.719 110.664 103.091 114.296 106.107 118.364Z" fill="#242424"/>
<path d="M131.828 92.5016C134.312 98.7494 136.972 104.997 139.456 111.1C141.584 116.476 143.536 123.014 149.744 126.211C155.953 129.407 162.871 126.792 165.887 121.852C169.08 116.621 169.967 110.228 170.322 104.416C170.499 97.7323 169.967 89.8863 165.532 84.0744C163.758 81.6043 158.082 81.7496 157.372 84.9462C156.663 88.288 158.082 91.3393 161.63 93.2281C164.468 94.6811 169.257 95.4076 172.45 94.2452C174.047 94.0999 173.515 93.664 170.677 92.9375C170.677 92.7922 170.677 92.9375 170.677 93.2281C170.499 93.9546 170.854 94.6811 170.854 95.4076C171.031 96.8606 171.209 98.3135 171.386 99.7665C171.741 102.818 172.273 106.014 173.337 108.92C175.289 114.296 179.014 120.544 185.932 122.433C192.496 124.176 200.833 120.399 200.301 114.296C199.946 109.647 191.076 109.647 191.431 114.296C191.431 114.732 191.609 114.732 190.899 115.168C190.899 115.168 189.835 115.604 190.012 115.604C188.416 115.895 186.642 114.587 185.577 113.57C182.384 110.228 181.143 105.578 180.433 101.655C180.078 99.4759 179.901 97.2965 179.723 95.117C179.546 92.7922 179.546 90.1769 177.417 88.4333C174.934 86.3992 172.273 87.1256 169.08 87.4162C168.193 87.5615 167.306 87.4162 166.419 87.2709C166.419 87.2709 165.71 86.6897 165.71 86.9803C163.049 87.2709 160.388 87.5615 157.55 87.8521C161.275 92.9375 161.452 100.202 160.92 106.014C160.743 109.066 160.033 112.262 159.146 115.168C158.614 116.912 157.727 119.527 155.953 120.399C154.534 121.125 152.76 119.527 151.873 118.365C149.922 115.895 149.035 113.134 147.971 110.373C145.31 103.835 142.649 97.2965 139.811 90.7581C138.569 86.1086 130.054 87.9974 131.828 92.5016Z" fill="#242424"/>
<path d="M192.495 115.604C194.092 118.22 196.398 120.544 199.768 121.707C203.316 123.014 207.218 122.869 210.411 120.98C213.072 119.382 215.024 117.203 216.443 114.878C218.039 112.408 219.458 109.647 220.168 106.886C221.764 101.22 220.523 95.2627 215.556 90.7584C210.766 86.3995 203.316 84.2201 197.107 87.8525C190.721 91.4849 187.351 98.1686 187.883 104.416C188.06 106.305 189.834 108.049 192.318 108.049C194.624 108.049 196.93 106.451 196.752 104.416C196.398 100.639 197.994 95.5532 202.606 93.6644C206.154 92.2114 210.589 96.1344 211.653 99.1857C213.25 103.545 210.944 108.194 208.283 112.117C207.751 112.844 207.218 113.715 206.686 114.151C206.509 114.297 206.154 114.587 205.977 114.732C205.622 115.023 205.444 115.168 205.622 114.878C205.444 115.023 205.09 115.168 204.912 115.168C202.606 115.459 201.187 113.28 200.3 111.827C199.236 110.083 196.22 109.502 194.269 110.519C191.785 111.681 191.253 113.861 192.495 115.604Z" fill="#242424"/>
<path d="M221.054 96.569C220.7 88.7229 223.183 81.0222 221.941 73.1761C221.409 69.5437 220.345 65.9113 218.748 62.4241C217.329 59.2276 215.201 55.5952 210.766 54.8687C208.46 54.4328 205.976 55.4499 205.267 57.3387C203.138 64.1677 206.154 71.5779 207.573 78.4068C209.169 85.3811 210.588 92.3554 212.894 99.1843C215.023 105.432 217.861 111.535 221.941 117.056C226.021 122.577 232.407 128.534 241.1 125.047C243.228 124.175 243.76 121.705 242.696 120.107C241.454 118.364 238.793 117.928 236.665 118.799C234.891 119.526 232.762 117.201 231.875 116.184C229.924 114.005 228.327 111.535 226.731 109.21C223.893 104.415 221.941 99.3296 220.345 94.2442C218.571 88.4323 217.329 82.4752 216.088 76.518C215.378 73.4667 214.668 70.5608 213.959 67.5096C213.249 64.7489 212.894 61.9883 213.781 59.3729C212.008 60.2447 210.056 61.1165 208.282 61.843C209.879 62.1336 211.121 66.4925 211.475 67.8001C212.54 70.7061 213.072 73.612 213.427 76.518C213.959 83.3469 211.83 89.8853 212.185 96.7143C212.362 101.219 221.232 101.219 221.054 96.569Z" fill="#242424"/>
<path d="M240.747 125.194C244.118 123.45 246.424 120.689 248.73 118.074C251.036 115.459 252.987 112.698 254.761 109.792C258.486 103.835 262.389 97.006 263.276 90.3223C263.808 86.8352 262.389 82.0404 256.89 82.331C252.455 82.6216 249.617 86.3993 248.02 89.4505C244.65 96.2795 247.311 102.818 254.229 107.322C256.003 108.484 257.954 109.502 259.373 110.809C260.438 111.826 260.083 112.553 259.196 113.57C257.422 115.604 253.874 118.219 251.036 118.365C251.746 118.51 252.455 118.655 253.342 118.801C253.165 118.801 252.987 118.655 252.987 118.655C253.519 119.091 254.052 119.527 254.584 119.963C254.584 119.818 254.406 119.818 254.406 119.672C254.584 120.254 254.761 120.835 254.939 121.561C254.939 121.416 254.939 121.271 254.939 121.271C254.761 121.852 254.584 122.433 254.406 123.16C254.406 123.014 254.584 123.014 254.584 122.869C257.245 118.801 249.617 115.023 246.956 119.236C245.005 122.142 247.311 125.775 251.568 125.775C254.406 125.775 257.422 124.612 259.551 123.45C264.695 120.835 270.194 115.895 268.952 110.519C267.711 105.143 260.792 103.69 257.245 99.7666C255.826 98.1684 255.116 96.2795 255.648 94.3906C256.18 92.6471 257.067 90.177 259.373 89.4505C258.664 89.5958 257.954 89.7411 257.067 89.8864C256.358 89.5958 255.826 89.3052 255.116 89.0146C254.939 88.5787 254.761 88.4335 254.761 88.724C254.761 89.1599 254.761 89.5958 254.761 90.0317C254.761 90.7582 254.406 91.4847 254.229 92.2112C253.874 93.6642 253.165 94.9718 252.632 96.4248C251.391 99.476 249.972 102.382 248.198 105.143C246.601 107.903 244.65 110.519 242.699 112.989C240.925 115.023 239.151 117.929 236.49 119.236C231.346 121.416 235.78 127.664 240.747 125.194Z" fill="#242424"/>
</svg>
